<?xml version="1.0" encoding="UTF-8"?><svg id="a" xmlns="http://www.w3.org/2000/svg" viewBox="0 0 15.67 15.67"><defs><style>.b{fill:none;stroke:#fff;stroke-linecap:round;stroke-miterlimit:10;}</style></defs><circle class="b" cx="7.83" cy="7.83" r="7.33"/><line class="b" x1="7.83" y1="15.17" x2="7.83" y2=".5"/><path class="b" d="M7.83,.5c-.06,0-.11,0-.17,0-2.13,1.73-3.5,4.37-3.5,7.33s1.37,5.6,3.5,7.33c.06,0,.11,0,.17,0"/><path class="b" d="M2.52,2.79c1.51,1.04,3.34,1.64,5.32,1.64s3.8-.61,5.32-1.64"/><path class="b" d="M13.3,12.72c-1.54-1.1-3.43-1.75-5.46-1.75s-3.92,.65-5.46,1.75"/><path class="b" d="M7.83,15.17c.06,0,.11,0,.17,0,2.13-1.73,3.5-4.37,3.5-7.33s-1.37-5.6-3.5-7.33c-.06,0-.11,0-.17,0"/><line class="b" x1=".5" y1="7.83" x2="15.17" y2="7.83"/></svg>